<svg xmlns="http://www.w3.org/2000/svg" version="1.1" xmlns:xlink="http://www.w3.org/1999/xlink" xmlns:svgjs="http://svgjs.dev/svgjs" width="1500" height="1500" viewBox="0 0 1500 1500"><rect width="1500" height="1500" fill="#000000"></rect><g transform="matrix(0.6666666666666666,0,0,0.6666666666666666,249.85778443113782,249.85778443113765)"><svg viewBox="0 0 334 334" data-background-color="#ffffff" preserveAspectRatio="xMidYMid meet" height="1500" width="1500" xmlns="http://www.w3.org/2000/svg" xmlns:xlink="http://www.w3.org/1999/xlink"><g id="tight-bounds" transform="matrix(1,0,0,1,0.04749999999998522,0.04750000000001364)"><svg viewBox="0 0 333.90454557049503 333.90454557049503" height="333.90454557049503" width="333.90454557049503"><g><svg></svg></g><g><svg viewBox="0 0 333.90454557049503 333.90454557049503" height="333.90454557049503" width="333.90454557049503"><g><path d="M0 166.952c0-92.205 74.747-166.952 166.952-166.952 92.205 0 166.952 74.747 166.953 166.952 0 92.205-74.747 166.952-166.953 166.953-92.205 0-166.952-74.747-166.952-166.953zM166.952 326.079c87.884 0 159.127-71.244 159.127-159.127 0-87.884-71.244-159.127-159.127-159.127-87.884 0-159.127 71.244-159.127 159.127 0 87.884 71.244 159.127 159.127 159.127z" data-fill-palette-color="tertiary" fill="#ffffff" stroke="transparent"></path><ellipse rx="160.27418187383762" ry="160.27418187383762" cx="166.95227278524752" cy="166.95227278524752" fill="#ffffff" stroke="transparent" stroke-width="0" fill-opacity="1" data-fill-palette-color="tertiary"></ellipse></g><g transform="matrix(1,0,0,1,98.55854867317964,71.17305217166896)"><svg viewBox="0 0 136.78744822413574 191.55844122715712" height="191.55844122715712" width="136.78744822413574"><g><svg viewBox="0 0 136.78744822413574 191.55844122715712" height="191.55844122715712" width="136.78744822413574"><g><svg viewBox="0 0 213.1584412271571 298.50910493613594" height="191.55844122715712" width="136.78744822413574"><g transform="matrix(1,0,0,1,0,163.29225440699753)"><svg viewBox="0 0 213.1584412271571 135.21685052913844" height="135.21685052913844" width="213.1584412271571"><g id="textblocktransform"><svg viewBox="0 0 213.1584412271571 135.21685052913844" height="135.21685052913844" width="213.1584412271571" id="textblock"><g><svg viewBox="0 0 213.1584412271571 135.21685052913844" height="135.21685052913844" width="213.1584412271571"><g transform="matrix(1,0,0,1,0,0)"><svg width="213.1584412271571" viewBox="0.2 -34.3 54.15 34.35" height="135.21685052913844" data-palette-color="#ffffff"><path d="M16.75-18.9L16.75-18.9 16.7-18.5Q22.2-17.8 24.3-15.78 26.4-13.75 26.4-10.05L26.4-10.05Q26.4-7.15 25.2-5.2 24-3.25 22.05-2.1 20.1-0.95 17.75-0.45 15.4 0.05 13.15 0.05L13.15 0.05Q11.9 0.05 10.23 0.03 8.55 0 6.98 0 5.4 0 4.33-0.03 3.25-0.05 3.25-0.05L3.25-0.05 3.2-0.55Q3.7-1.3 3.95-1.53 4.2-1.75 4.28-2.2 4.35-2.65 4.35-4.05L4.35-4.05 4.35-30.55Q4.35-31.4 3.7-31.88 3.05-32.35 2.1-32.6 1.15-32.85 0.2-33.1L0.2-33.1 0.25-33.95 0.6-34.3 12.95-34.3Q15.05-34.3 17.1-34.02 19.15-33.75 20.8-33.02 22.45-32.3 23.43-31 24.4-29.7 24.4-27.65L24.4-27.65Q24.4-25.2 23.33-23.58 22.25-21.95 20.53-20.85 18.8-19.75 16.75-18.9ZM8.45-31.45L8.45-19.55Q8.55-19.2 8.97-19.13 9.4-19.05 10.15-19.05L10.15-19.05Q12.8-19.05 15.08-19.88 17.35-20.7 18.75-22.5 20.15-24.3 20.15-27.25L20.15-27.25Q20.15-29.35 19.03-30.45 17.9-31.55 16.07-31.98 14.25-32.4 12.1-32.4L12.1-32.4Q11.55-32.4 10.73-32.38 9.9-32.35 9.25-32.18 8.6-32 8.45-31.45L8.45-31.45ZM8.45-16.9L8.45-3.3Q8.45-2.45 9.08-2.2 9.7-1.95 12.2-1.95L12.2-1.95Q14.75-1.95 16.95-2.85 19.15-3.75 20.5-5.63 21.85-7.5 21.85-10.4L21.85-10.4Q21.85-12.65 20.95-14 20.05-15.35 18.57-16.07 17.1-16.8 15.28-17.05 13.45-17.3 11.55-17.3L11.55-17.3Q10.2-17.3 9.43-17.3 8.65-17.3 8.45-16.9L8.45-16.9ZM44.7-18.9L44.7-18.9 44.65-18.5Q50.15-17.8 52.25-15.78 54.35-13.75 54.35-10.05L54.35-10.05Q54.35-7.15 53.15-5.2 51.95-3.25 50-2.1 48.05-0.95 45.7-0.45 43.35 0.05 41.1 0.05L41.1 0.05Q39.85 0.05 38.17 0.03 36.5 0 34.92 0 33.35 0 32.27-0.03 31.2-0.05 31.2-0.05L31.2-0.05 31.15-0.55Q31.65-1.3 31.9-1.53 32.15-1.75 32.22-2.2 32.3-2.65 32.3-4.05L32.3-4.05 32.3-30.55Q32.3-31.4 31.65-31.88 31-32.35 30.05-32.6 29.1-32.85 28.15-33.1L28.15-33.1 28.2-33.95 28.55-34.3 40.9-34.3Q43-34.3 45.05-34.02 47.1-33.75 48.75-33.02 50.4-32.3 51.37-31 52.35-29.7 52.35-27.65L52.35-27.65Q52.35-25.2 51.27-23.58 50.2-21.95 48.47-20.85 46.75-19.75 44.7-18.9ZM36.4-31.45L36.4-19.55Q36.5-19.2 36.92-19.13 37.35-19.05 38.1-19.05L38.1-19.05Q40.75-19.05 43.02-19.88 45.3-20.7 46.7-22.5 48.1-24.3 48.1-27.25L48.1-27.25Q48.1-29.35 46.97-30.45 45.85-31.55 44.02-31.98 42.2-32.4 40.05-32.4L40.05-32.4Q39.5-32.4 38.67-32.38 37.85-32.35 37.2-32.18 36.55-32 36.4-31.45L36.4-31.45ZM36.4-16.9L36.4-3.3Q36.4-2.45 37.02-2.2 37.65-1.95 40.15-1.95L40.15-1.95Q42.7-1.95 44.9-2.85 47.1-3.75 48.45-5.63 49.8-7.5 49.8-10.4L49.8-10.4Q49.8-12.65 48.9-14 48-15.35 46.52-16.07 45.05-16.8 43.22-17.05 41.4-17.3 39.5-17.3L39.5-17.3Q38.15-17.3 37.37-17.3 36.6-17.3 36.4-16.9L36.4-16.9Z" opacity="1" transform="matrix(1,0,0,1,0,0)" fill="#000000" class="wordmark-text-0" data-fill-palette-color="quaternary" id="text-0"></path></svg></g></svg></g></svg></g></svg></g><g transform="matrix(1,0,0,1,40.713262274387006,0)"><svg viewBox="0 0 131.7319166783831 131.37080120148065" height="131.37080120148065" width="131.7319166783831"><g><svg xmlns="http://www.w3.org/2000/svg" xmlns:xlink="http://www.w3.org/1999/xlink" version="1.1" x="0" y="0" viewBox="10.603 10.71 78.795 78.57900000000001" enable-background="new 0 0 100 100" xml:space="preserve" height="131.37080120148065" width="131.7319166783831" class="icon-icon-0" data-fill-palette-color="quaternary" id="icon-0"><path d="M79.236 48.382L79.894 48.322C79.106 39.623 71.023 32.886 61.43 32.886L61.168 32.887C56.553 32.958 52.241 34.54 48.895 37.333A20 20 0 0 0 40.74 35.698C36.807 35.751 33.167 36.891 30.179 38.828L23.373 10.71 20.457 11.416 27.588 40.876A16.8 16.8 0 0 0 24.349 45.07L13.462 21.673 10.742 22.939 22.581 48.382H10.603V49.882C10.603 71.611 28.274 89.289 49.996 89.289 71.723 89.289 89.398 71.611 89.398 49.882V48.382zM61.212 35.888L61.436 35.887C69.403 35.887 76.114 41.325 76.876 48.382H58.938C57.846 44.488 55.26 41.158 51.787 38.888 54.453 37.003 57.726 35.942 61.212 35.888M40.779 38.7C47.774 38.605 53.792 42.682 55.799 48.383H26.172C28.171 42.781 34.059 38.791 40.779 38.7M49.995 86.29C30.43 86.29 14.422 70.766 13.633 51.383H56.469L56.471 51.395 56.601 51.383H86.368C85.578 70.765 69.564 86.29 49.995 86.29" fill="#000000" data-fill-palette-color="quaternary"></path></svg></g></svg></g><g></g></svg></g></svg></g></svg></g></svg></g><defs></defs></svg><rect width="333.90454557049503" height="333.90454557049503" fill="none" stroke="none" visibility="hidden"></rect></g></svg></g></svg>